:SAMPLES-PER-SECOND 30
:FULLY-SPECIFIED
:DEGREES
1063
root  -55.8804 38.9857 1.2339 -53.7124 -84.9247 49.7055
RightUpLeg  -19.6412 -7.96042 -5.61952
RightLeg  7.83957 4.07914 0.432665
RightFoot  9.63708 -0.694678 4.12951
RightToes  -8.3237e-009 0 -3.6325e-017
Spine  0.488132 -0.886493 1.17192
Spine1  9.87107 -0.107501 -3.31032
HEad  -21.1898 -2.49311 -3.2289
LeftShoulder1  -0.521353 4.77786 -34.7453
LeftArm  7.70846 1.12465 -43.4341
LeftForeArm  29.7638 -12.3538 -9.45831
LeftHand  -0.0665293 7.34436 -1.08269
RightShoulder  -1.05887 -6.39053 30.1404
RightArm  22.6541 -2.44157 46.4281
RightForeArm  17.4523 12.5964 7.68644
RightHand  0.0418676 3.7161 0.277914
LeftUpLeg  11.7068 3.0875 -5.23376
LeftLeg  14.6965 1.60981 1.2361
LeftFoot  -20.337 0.512033 4.99237
LeftToes  -1.18267e-011 3.61711e-011 9.57411e-011
1064
root  -57.0206 38.9326 1.11794 -36.9435 -86.6746 32.6603
RightUpLeg  -19.8505 -7.49599 -3.58294
RightLeg  12.3055 4.45815 1.19505
RightFoot  7.67924 -0.59074 3.83329
RightToes  -8.3237e-009 0 -3.6325e-017
Spine  0.651918 -0.562485 5.76424
Spine1  9.76729 0.679237 -5.29512
HEad  -21.3196 -3.16796 -3.71141
LeftShoulder1  -0.528866 4.78419 -35.142
LeftArm  -0.351872 3.05954 -42.3274
LeftForeArm  37.0994 -7.63289 -10.013
LeftHand  -0.105788 8.9153 -1.81457
RightShoulder  -1.02324 -6.2968 30.0761
RightArm  20.159 -0.127547 46.2005
RightForeArm  17.3859 11.1219 7.88861
RightHand  0.0308403 4.05442 0.106506
LeftUpLeg  12.6603 1.71369 -3.13732
LeftLeg  17.1521 3.33502 1.80522
LeftFoot  -20.8373 0.393227 3.21966
LeftToes  -1.18267e-011 3.61711e-011 9.57411e-011
1065
root  -58.0886 38.9496 0.929522 -17.9307 -87.6564 13.6373
RightUpLeg  -19.6935 -6.50657 -1.89466
RightLeg  15.2192 4.29162 1.22602
RightFoot  6.13528 -0.335732 2.44802
RightToes  -8.3237e-009 0 -3.6325e-017
Spine  0.821907 -0.170822 8.04381
Spine1  9.43403 1.11558 -5.21679
HEad  -20.5914 -3.96114 -4.0996
LeftShoulder1  -0.457195 4.60586 -35.3082
LeftArm  -3.96735 6.33725 -41.5877
LeftForeArm  39.8504 -5.27442 -9.14297
LeftHand  -0.117188 9.30191 -1.88983
RightShoulder  -0.936921 -6.0994 29.5283
RightArm  17.178 1.92007 46.2808
RightForeArm  18.3149 9.87617 7.6418
RightHand  0.0687017 3.66549 0.624055
LeftUpLeg  12.2354 1.19982 -1.30104
LeftLeg  21.1923 3.80983 1.92253
LeftFoot  -19.0821 0.208544 1.34525
LeftToes  -1.18267e-011 3.61711e-011 9.57411e-011
1066
root  -59.0346 38.9823 0.697078 1.66632 -86.8433 -6.18547
RightUpLeg  -19.1271 -6.03947 -0.910168
RightLeg  17.8418 3.22178 1.0108
RightFoot  4.35371 -0.104039 0.979194
RightToes  -8.3237e-009 0 -3.6325e-017
Spine  1.05762 -0.535626 8.78149
Spine1  9.52907 0.753583 -4.1307
HEad  -19.8673 -5.63962 -3.15579
LeftShoulder1  -0.34897 4.37128 -33.9598
LeftArm  -4.56533 9.72894 -41.4572
LeftForeArm  40.4312 -4.22985 -8.69115
LeftHand  -0.165755 9.51339 -2.94803
RightShoulder  -0.973854 -6.19213 29.662
RightArm  15.5645 4.30166 46.4393
RightForeArm  18.8977 9.2032 7.40625
RightHand  0.0531322 2.7059 0.580668
LeftUpLeg  10.3698 0.857585 0.592707
LeftLeg  27.4088 2.45239 1.70331
LeftFoot  -16.0054 0.0124924 -2.26084
LeftToes  -1.18267e-011 3.61711e-011 9.57411e-011
1067
root  -59.9098 39.0078 0.49781 12.7786 -85.2464 -17.1126
RightUpLeg  -18.5518 -6.91241 0.128051
RightLeg  19.5388 2.69132 1.00772
RightFoot  2.18667 -0.0782902 0.792696
RightToes  -8.3237e-009 0 -3.6325e-017
Spine  1.04729 -0.925311 10.0439
Spine1  9.11604 0.443314 -3.541
HEad  -18.3738 -7.92405 -2.4325
LeftShoulder1  -0.135991 3.85184 -33.1378
LeftArm  -4.02535 12.3871 -40.6593
LeftForeArm  41.6752 -3.71403 -8.90513
LeftHand  -0.275468 10.5754 -4.7025
RightShoulder  -1.02455 -6.34751 29.4587
RightArm  14.0879 5.04673 46.4929
RightForeArm  17.0983 10.5056 6.6427
RightHand  -0.0161989 3.8977 -0.477797
LeftUpLeg  6.49476 0.863422 2.91155
LeftLeg  35.3989 1.02577 1.152
LeftFoot  -10.4047 0.0966727 -4.85634
LeftToes  -1.18267e-011 3.61711e-011 9.57411e-011
1068
root  -60.7706 39.0645 0.360547 18.8011 -84.3821 -22.7112
RightUpLeg  -18.0672 -7.35582 0.978854
RightLeg  20.6609 2.64167 1.12162
RightFoot  0.382634 -0.0985828 0.991495
RightToes  -8.3237e-009 0 -3.6325e-017
Spine  0.611366 -0.925392 10.8508
Spine1  8.91532 0.289217 -2.56538
HEad  -17.2082 -10.8709 -2.12684
LeftShoulder1  -0.174137 3.93837 -33.9203
LeftArm  -3.19846 13.8902 -38.8798
LeftForeArm  43.092 -4.15246 -9.28137
LeftHand  -0.265162 9.81153 -5.27647
RightShoulder  -0.907221 -6.10707 28.2832
RightArm  13.8531 5.28467 46.7171
RightForeArm  13.8574 12.8156 5.88245
RightHand  0.0078646 4.05507 -0.18101
LeftUpLeg  1.89493 1.34301 4.59562
LeftLeg  43.4488 0.421835 0.828933
LeftFoot  -2.69425 0.3499 -4.62522
LeftToes  -1.18267e-011 3.61711e-011 9.57411e-011
1069
root  -61.5227 39.1151 0.230359 24.4915 -84.146 -28.4101
RightUpLeg  -17.1067 -7.14798 1.71096
RightLeg  21.3229 2.61925 1.23916
RightFoot  -1.03116 -0.101964 1.06181
RightToes  -8.3237e-009 0 -3.6325e-017
Spine  1.20917 -0.981175 11.5804
Spine1  8.38536 0.350134 -2.21508
HEad  -16.9402 -13.291 -1.15886
LeftShoulder1  -0.328147 4.32391 -33.8726
LeftArm  -2.65889 15.2993 -37.9088
LeftForeArm  42.8625 -5.51142 -9.41931
LeftHand  -0.248952 9.46301 -5.327
RightShoulder  -0.913679 -6.10102 28.6031
RightArm  16.1228 6.56529 45.9041
RightForeArm  9.73912 15.7424 5.42949
RightHand  0.0465759 4.51217 0.259078
LeftUpLeg  -2.17931 2.05578 5.81995
LeftLeg  50.4487 0.0430271 0.502037
LeftFoot  3.36889 0.392671 -3.14089
LeftToes  -1.18267e-011 3.61711e-011 9.57411e-011
1070
root  -62.2251 39.1905 0.176779 32.0562 -84.5833 -36.4416
RightUpLeg  -15.5073 -7.22239 2.2492
RightLeg  21.4561 3.27121 1.62887
RightFoot  -2.18495 -0.089244 0.912603
RightToes  -8.3237e-009 0 -3.6325e-017
Spine  1.90283 -0.815499 13.2097
Spine1  8.18079 0.935494 -3.18652
HEad  -16.8736 -16.0787 0.0357899
LeftShoulder1  -0.342216 4.36084 -33.7812
LeftArm  -3.2381 16.6258 -37.8378
LeftForeArm  41.396 -7.22627 -8.83374
LeftHand  -0.279987 9.94375 -5.53089
RightShoulder  -0.840168 -5.9073 28.3552
RightArm  18.4334 7.64247 45.6502
RightForeArm  6.83198 18.6919 4.94563
RightHand  -0.0255423 4.638 -0.583658
LeftUpLeg  -4.99958 2.84909 6.57253
LeftLeg  55.2333 -0.509743 -0.310049
LeftFoot  2.9382 0.346221 -2.91293
LeftToes  -1.18267e-011 3.61711e-011 9.57411e-011
1071
root  -62.9128 39.3293 0.140734 42.3797 -85.9385 -46.7764
RightUpLeg  -14.1987 -6.80832 2.20954
RightLeg  21.0547 4.45028 2.07502
RightFoot  -2.87605 -0.0849629 0.878887
RightToes  -8.3237e-009 0 -3.6325e-017
Spine  2.17199 -0.250202 13.4137
Spine1  8.04963 1.58454 -3.33969
HEad  -16.8626 -17.8521 0.933466
LeftShoulder1  -0.391955 4.47317 -34.2748
LeftArm  -2.84876 17.1714 -37.7242
LeftForeArm  36.9663 -8.45007 -8.59422
LeftHand  -0.214613 9.81494 -3.80084
RightShoulder  -0.844291 -5.95292 27.8753
RightArm  19.2973 8.64182 45.7232
RightForeArm  7.05884 21.4425 4.53696
RightHand  -0.0615489 5.46088 -0.977435
LeftUpLeg  -7.77084 3.46834 6.40035
LeftLeg  57.6868 -1.42505 -1.90019
LeftFoot  1.0214 0.382806 -3.59519
LeftToes  -1.18267e-011 3.61711e-011 9.57411e-011
1072
root  -63.5446 39.4524 0.176918 64.9149 -87.1472 -69.249
RightUpLeg  -13.1797 -6.81398 1.94648
RightLeg  20.8749 6.07317 2.68625
RightFoot  -3.47639 -0.0723768 0.700508
RightToes  -8.3237e-009 0 -3.6325e-017
Spine  2.16601 -0.0804995 13.6527
Spine1  8.25143 1.90374 -3.98248
HEad  -16.8575 -18.8532 1.32351
LeftShoulder1  -0.431525 4.56808 -34.3664
LeftArm  -2.53902 17.8164 -38.1686
LeftForeArm  33.5203 -10.1939 -8.08711
LeftHand  -0.05656 7.93259 -0.737045
RightShoulder  -0.872837 -6.04802 27.7178
RightArm  19.2983 10.0293 46.3917
RightForeArm  7.7826 23.6293 4.64124
RightHand  -0.0734346 5.52232 -1.09945
LeftUpLeg  -10.3455 2.9158 5.7164
LeftLeg  58.1056 -1.91074 -2.78351
LeftFoot  -0.442779 0.409563 -4.26552
LeftToes  -1.18267e-011 3.61711e-011 9.57411e-011
1073
root  -64.1457 39.5407 0.256268 108.289 -87.7025 -112.533
RightUpLeg  -12.392 -6.46164 1.52298
RightLeg  20.9183 7.82658 3.16455
RightFoot  -4.25742 -0.0777914 0.797399
RightToes  -8.3237e-009 0 -3.6325e-017
Spine  2.33066 0.015347 13.7631
Spine1  8.02299 2.14032 -4.6847
HEad  -16.8529 -18.9516 1.70535
LeftShoulder1  -0.3144 4.28839 -33.946
LeftArm  -2.09208 18.1244 -39.3903
LeftForeArm  31.7222 -11.1354 -7.87639
LeftHand  -0.048901 7.81887 -0.169148
RightShoulder  -0.872364 -6.0543 27.6163
RightArm  17.8222 10.5529 47.2489
RightForeArm  9.17821 25.7076 5.03005
RightHand  -0.0970235 5.55511 -1.35404
LeftUpLeg  -12.5311 1.58751 4.91441
LeftLeg  56.7996 -2.06703 -2.89893
LeftFoot  -2.38314 0.322116 -3.89391
LeftToes  -1.18267e-011 3.61711e-011 9.57411e-011
